{"title":"Beta (1992) Hindi 2CD DVDRip AVC x264 ESubs 6Ch-=MTR=-","uid":6601185,"size":1468988010,"categoryP":"video","categoryS":"movies","magnet":"?xt=urn:btih:efacfef55f65f6f7e59a4138ade56cd26a20cba8&amp;dn=Beta+%281992%29+Hindi+2CD+DVDRip+AVC+x264+ESubs+6Ch-%3DMTR%3D-&amp;tr=udp%3A%2F%2Ftracker.openbittorrent.com%3A80&amp;tr=udp%3A%2F%2Fopen.demonii.com%3A1337&amp;tr=udp%3A%2F%2Ftracker.coppersurfer.tk%3A6969&amp;tr=udp%3A%2F%2Fexodus.desync.com%3A6969","seeders":0,"leechers":1,"uploader":"HDvideos","files":-1,"time":1313218005,"description":"Beta (1992) Hindi 2CD DVDRip AVC x264 ESubs 6Ch-=MTR=-\n\nCheck out MY latest Uploads:\n &lt;a href=&quot;\nhttp://thepiratebay.se/user/HDvideos/0/7&quot; rel=&quot;nofollow&quot; target=&quot;_NEW&quot;&gt;\nhttp://thepiratebay.se/user/HDvideos/0/7&lt;/a&gt;\n\nStay updated with us....\n\nSeed after downloading....\n\nEnjoY with HDvideos..\n\nSay thanks if u like my posts\n\nGive ur valuable feedbacks\n\nQuality Uploads from HDvideos\n\n-=MT=-Uploader-=HDvideos=-\n\nRecommended Player:VLC Player\n\nCredits: Punjabi_boy\n\nRipper : Rahul\nSource : DDR\nComplete name : Beta (1992) \nFormat : Matroska\nFile size : 1.36 GiB\nDuration : 2h 44mn\nOverall bit rate : 1 189 Kbps\nEncoded date : UTC 2011-08-03 21:04:13\n\n\nVideo\nID : 1\nFormat : AVC\nFormat/Info : Advanced Video Codec\nFormat profile : &lt;a class=&quot;__cf_email__&quot; href=&quot;/cdn-cgi/l/email-protection&quot; data-cfemail=&quot;d39bbab4bb939fe0fde3&quot;&gt;[email&amp;#160;protected]&lt;/a&gt;&lt;script cf-hash='f9e31' type=&quot;text/javascript&quot;&gt;\n/* &lt;![CDATA[ */!function(){try{var t=&quot;currentScript&quot;in document?document.currentScript:function(){for(var t=document.getElementsByTagName(&quot;script&quot;),e=t.length;e--;)if(t[e].getAttribute(&quot;cf-hash&quot;))return t[e]}();if(t&amp;&amp;t.previousSibling){var e,r,n,i,c=t.previousSibling,a=c.getAttribute(&quot;data-cfemail&quot;);if(a){for(e=&quot;&quot;,r=parseInt(a.substr(0,2),16),n=2;a.length-n;n+=2)i=parseInt(a.substr(n,2),16)^r,e+=String.fromCharCode(i);e=document.createTextNode(e),c.parentNode.replaceChild(e,c)}}}catch(u){}}();/* ]]&gt; */&lt;/script&gt;\nFormat settings, CABAC : Yes\nFormat settings, ReFrames : 4 frames\nMuxing mode : Header stripping\nCodec ID : V_MPEG4/ISO/AVC\nDuration : 2h 44mn\nBit rate : 804 Kbps\nWidth : 704 pixels\nHeight : 368 pixels\nDisplay aspect ratio : 1.913\nFrame rate : 23.976 fps\nColor space : YUV\nChroma subsampling : 4:2:0\nBit depth : 8 bits\nScan type : Progressive\nBits/(Pixel*Frame) : 0.129\nStream size : 917 MiB (66%)\nWriting library : x264 core 115 r1995 c1e60b9\n\n\nAudio\nID : 2\nFormat : AC-3\nFormat/Info : Audio Coding 3\nMode extension : CM (complete main)\nMuxing mode : Header stripping\nCodec ID : A_AC3\nDuration : 2h 44mn\nBit rate mode : Constant\nBit rate : 384 Kbps\nChannel(s) : 6 channels\nChannel positions : Front: L C R, Side: L R, LFE\nSampling rate : 48.0 KHz\nBit depth : 16 bits\nCompression mode : Lossy\nStream size : 451 MiB (32%)\n","torrent":{"xt":"urn:btih:efacfef55f65f6f7e59a4138ade56cd26a20cba8","amp;dn":"Beta+%281992%29+Hindi+2CD+DVDRip+AVC+x264+ESubs+6Ch-%3DMTR%3D-","amp;tr":["udp%3A%2F%2Ftracker.openbittorrent.com%3A80","udp%3A%2F%2Fopen.demonii.com%3A1337","udp%3A%2F%2Ftracker.coppersurfer.tk%3A6969","udp%3A%2F%2Fexodus.desync.com%3A6969"],"infoHash":"efacfef55f65f6f7e59a4138ade56cd26a20cba8","infoHashBuffer":{"type":"Buffer","data":[239,172,254,245,95,101,246,247,229,154,65,56,173,229,108,210,106,32,203,168]},"announce":[],"urlList":[]}}